<svg width="50" height="50" viewBox="0 0 50 50" fill="none" xmlns="http://www.w3.org/2000/svg">
<mask id="mask0_41_3" style="mask-type:luminance" maskUnits="userSpaceOnUse" x="2" y="2" width="46" height="46">
<path d="M2.08333 2.08337H47.9167V47.9167H2.08333V2.08337Z" fill="white"/>
</mask>
<g mask="url(#mask0_41_3)">
<path d="M25.9542 29.7751C25.4482 29.7757 24.9631 29.9769 24.6054 30.3347C24.2476 30.6925 24.0464 31.1775 24.0458 31.6835V41.2335C24.0464 41.7394 24.2476 42.2245 24.6054 42.5823C24.9631 42.94 25.4482 43.1413 25.9542 43.1418H28.8188V46.9626L33.5938 43.1418H45.0521C45.558 43.1413 46.0431 42.94 46.4009 42.5823C46.7586 42.2245 46.9599 41.7394 46.9604 41.2335V31.6835C46.9599 31.1775 46.7586 30.6925 46.4009 30.3347C46.0431 29.9769 45.558 29.7757 45.0521 29.7751H25.9542Z" fill="#FF808C"/>
<path d="M24.0458 3.0376C24.5521 3.03815 25.0375 3.23967 25.3954 3.59788C25.7532 3.95609 25.9542 4.4417 25.9542 4.94801V14.4959C25.9542 15.0022 25.7532 15.4879 25.3954 15.8461C25.0375 16.2043 24.5521 16.4058 24.0458 16.4063H21.1812V21.1813L16.4062 16.4063H4.94791C4.4416 16.4058 3.95621 16.2043 3.59839 15.8461C3.24057 15.4879 3.03958 15.0022 3.03958 14.4959V4.94801C3.03958 4.4417 3.24057 3.95609 3.59839 3.59788C3.95621 3.23967 4.4416 3.03815 4.94791 3.0376H24.0458Z" fill="#FFEF5E"/>
<path d="M4.94791 3.0376C4.4416 3.03815 3.95621 3.23967 3.59839 3.59788C3.24057 3.95609 3.03958 4.4417 3.03958 4.94801V14.4959C3.03958 15.0022 3.24057 15.4879 3.59839 15.8461C3.95621 16.2043 4.4416 16.4058 4.94791 16.4063H6.175L19.5417 3.0376H4.94791Z" fill="#FFF9BF"/>
<path d="M25.9542 29.7751C25.4482 29.7757 24.9631 29.9769 24.6054 30.3347C24.2476 30.6925 24.0464 31.1775 24.0458 31.6835V41.2335C24.0464 41.7394 24.2476 42.2245 24.6054 42.5823C24.9631 42.94 25.4482 43.1413 25.9542 43.1418H27.1813L40.5479 29.7751H25.9542Z" fill="#FFBFC5"/>
<path d="M27.8646 33.5938H42.1875M27.8646 37.4126H37.4125M25.9542 29.7751C25.4482 29.7756 24.9631 29.9769 24.6054 30.3346C24.2476 30.6924 24.0464 31.1775 24.0458 31.6834V41.2334C24.0464 41.7394 24.2476 42.2245 24.6054 42.5822C24.9631 42.94 25.4482 43.1412 25.9542 43.1418H28.8188V46.9626L33.5938 43.1418H45.0521C45.558 43.1412 46.0431 42.94 46.4009 42.5822C46.7586 42.2245 46.9599 41.7394 46.9604 41.2334V31.6834C46.9599 31.1775 46.7586 30.6924 46.4009 30.3346C46.0431 29.9769 45.558 29.7756 45.0521 29.7751H25.9542ZM24.0458 3.0376C24.5521 3.03815 25.0375 3.23967 25.3954 3.59788C25.7532 3.95609 25.9542 4.4417 25.9542 4.94801V14.4959C25.9542 15.0022 25.7532 15.4879 25.3954 15.8461C25.0375 16.2043 24.5521 16.4058 24.0458 16.4063H21.1812V21.1813L16.4062 16.4063H4.94791C4.4416 16.4058 3.95621 16.2043 3.59839 15.8461C3.24057 15.4879 3.03958 15.0022 3.03958 14.4959V4.94801C3.03958 4.4417 3.24057 3.95609 3.59839 3.59788C3.95621 3.23967 4.4416 3.03815 4.94791 3.0376H24.0458Z" stroke="#191919" stroke-linecap="round" stroke-linejoin="round"/>
<path d="M29.775 25.9543C29.7305 24.8138 29.9223 23.6764 30.3384 22.6137C30.7545 21.5509 31.3859 20.5856 32.193 19.7785C33.0001 18.9715 33.9653 18.3401 35.0281 17.924C36.0909 17.5078 37.2283 17.316 38.3687 17.3606C39.5092 17.316 40.6466 17.5078 41.7094 17.924C42.7722 18.3401 43.7374 18.9715 44.5445 19.7785C45.3516 20.5856 45.983 21.5509 46.3991 22.6137C46.8152 23.6764 47.007 24.8138 46.9625 25.9543H29.775Z" fill="#66E1FF" stroke="#191919" stroke-linecap="round" stroke-linejoin="round"/>
<path d="M44.0438 7.96474C43.0344 8.5045 41.905 8.78041 40.7604 8.76682C39.415 8.76679 38.0966 8.38915 36.9553 7.67685C35.8139 6.96455 34.8954 5.9462 34.3042 4.73765C35.0551 3.98063 36.0025 3.44822 37.0396 3.20031C38.0767 2.95241 39.1624 2.99886 40.1745 3.33444C41.1867 3.67001 42.0851 4.28139 42.7686 5.09979C43.4522 5.91818 43.8938 6.90901 44.0438 7.96474Z" fill="#C77F67" stroke="#191919" stroke-linecap="round" stroke-linejoin="round"/>
<path d="M44.0979 8.76672C44.0986 9.70801 43.8674 10.635 43.4247 11.4656C42.9819 12.2963 42.3414 13.0051 41.5596 13.5294C40.7778 14.0536 39.8788 14.3771 38.9423 14.4714C38.0057 14.5656 37.0604 14.4276 36.1898 14.0696C35.3193 13.7116 34.5503 13.1446 33.951 12.4188C33.3517 11.693 32.9404 10.8307 32.7536 9.9081C32.5667 8.98553 32.6101 8.03115 32.8798 7.12933C33.1495 6.22751 33.6373 5.40604 34.3 4.73755C34.891 5.94578 35.8092 6.96392 36.9502 7.67619C38.0912 8.38847 39.4091 8.7663 40.7542 8.76672C41.8994 8.78066 43.0296 8.50474 44.0396 7.96463C44.0771 8.23269 44.0979 8.50005 44.0979 8.76672Z" fill="#FFDDA1" stroke="#191919" stroke-linecap="round" stroke-linejoin="round"/>
<path d="M3.0375 46.9626C2.99328 45.8222 3.18531 44.685 3.60154 43.6223C4.01777 42.5597 4.6492 41.5945 5.45619 40.7875C6.26319 39.9806 7.22831 39.3491 8.29096 38.9329C9.35361 38.5167 10.4908 38.3246 11.6313 38.3689C12.7717 38.3243 13.9091 38.5161 14.9719 38.9323C16.0347 39.3484 16.9999 39.9798 17.807 40.7869C18.6141 41.5939 19.2455 42.5592 19.6616 43.622C20.0777 44.6847 20.2695 45.8221 20.225 46.9626H3.0375Z" fill="#66E1FF" stroke="#191919" stroke-linecap="round" stroke-linejoin="round"/>
<path d="M17.3083 29.0106C16.312 29.5293 15.2023 29.7921 14.0792 29.7752C12.7267 29.7746 11.4019 29.3926 10.2568 28.6728C9.11181 27.9531 8.19309 26.9249 7.60625 25.7064C8.36345 24.9588 9.31391 24.4368 10.3511 24.199C11.3883 23.9612 12.4712 24.0169 13.4785 24.36C14.4858 24.703 15.3776 25.3198 16.0541 26.1412C16.7305 26.9626 17.1648 27.9562 17.3083 29.0106Z" fill="#C77F67" stroke="#191919" stroke-linecap="round" stroke-linejoin="round"/>
<path d="M17.3625 29.775C17.3628 30.7185 17.1302 31.6474 16.6852 32.4793C16.2403 33.3113 15.5967 34.0204 14.8118 34.5438C14.0269 35.0672 13.1248 35.3887 12.1858 35.4797C11.2467 35.5707 10.2997 35.4283 9.42892 35.0653C8.55811 34.7023 7.79042 34.1299 7.19403 33.3988C6.59765 32.6678 6.19103 31.8008 6.01028 30.8748C5.82954 29.9488 5.88026 28.9926 6.15795 28.0909C6.43564 27.1893 6.9317 26.3701 7.60208 25.7063C8.18907 26.9251 9.10812 27.9535 10.2535 28.6733C11.399 29.393 12.7243 29.7749 14.0771 29.775C15.1996 29.7925 16.3088 29.5297 17.3042 29.0105C17.3417 29.2619 17.3611 29.5167 17.3625 29.775Z" fill="#FFDDA1" stroke="#191919" stroke-linecap="round" stroke-linejoin="round"/>
<path d="M7.60417 25.7084V25.6876M21.1813 6.8584H6.85417M16.4063 10.6771H6.85834" stroke="#191919" stroke-linecap="round" stroke-linejoin="round"/>
</g>
</svg>
