<svg width="35" height="35" viewBox="0 0 35 35" fill="none" xmlns="http://www.w3.org/2000/svg">
<rect width="35" height="35" rx="10" fill="url(#paint0_linear_61_66)"/>
<path d="M21.1413 13.2891C21.0552 12.4827 20.692 11.8549 20.0518 11.4055C19.4179 10.9562 18.593 10.7315 17.5774 10.7315C16.8634 10.7315 16.2509 10.8393 15.7401 11.0547C15.2292 11.2701 14.8383 11.5625 14.5675 11.9318C14.2966 12.3011 14.1581 12.7228 14.152 13.1967C14.152 13.5907 14.2412 13.9323 14.4197 14.2216C14.6044 14.5109 14.8537 14.7571 15.1676 14.9602C15.4815 15.1572 15.8293 15.3234 16.2109 15.4588C16.5926 15.5942 16.9773 15.7081 17.3651 15.8004L19.1378 16.2436C19.8518 16.4098 20.5381 16.6345 21.1967 16.9176C21.8615 17.2008 22.4555 17.5578 22.9787 17.9886C23.508 18.4195 23.9266 18.9396 24.2344 19.549C24.5421 20.1584 24.696 20.8724 24.696 21.6911C24.696 22.799 24.4129 23.7746 23.8466 24.6179C23.2803 25.455 22.4616 26.1106 21.3906 26.5845C20.3258 27.0523 19.0362 27.2862 17.522 27.2862C16.0509 27.2862 14.7737 27.0585 13.6903 26.603C12.6132 26.1475 11.7699 25.4827 11.1605 24.6087C10.5573 23.7346 10.2311 22.6697 10.1818 21.4141H13.5518C13.6011 22.0727 13.8042 22.6205 14.1612 23.0575C14.5182 23.4946 14.983 23.8208 15.5554 24.0362C16.134 24.2517 16.7803 24.3594 17.4943 24.3594C18.2391 24.3594 18.8916 24.2486 19.4517 24.027C20.018 23.7992 20.4612 23.4853 20.7812 23.0852C21.1013 22.679 21.2644 22.205 21.2706 21.6634C21.2644 21.1709 21.1198 20.7647 20.8366 20.4446C20.5535 20.1184 20.1565 19.8475 19.6456 19.6321C19.1409 19.4105 18.55 19.2135 17.8729 19.0412L15.7216 18.4872C14.1643 18.0871 12.9332 17.4808 12.0284 16.6683C11.1297 15.8497 10.6804 14.7633 10.6804 13.4091C10.6804 12.295 10.982 11.3194 11.5852 10.4822C12.1946 9.64512 13.0225 8.99574 14.0689 8.53409C15.1153 8.06629 16.3002 7.83239 17.6236 7.83239C18.9654 7.83239 20.1411 8.06629 21.1506 8.53409C22.1662 8.99574 22.9633 9.63897 23.5419 10.4638C24.1205 11.2824 24.419 12.2242 24.4375 13.2891H21.1413Z" fill="black"/>
<defs>
<linearGradient id="paint0_linear_61_66" x1="17.5" y1="0" x2="17.5" y2="35" gradientUnits="userSpaceOnUse">
<stop offset="0.211538" stop-color="#66E1FF"/>
<stop offset="0.841346" stop-color="#F65FEE"/>
</linearGradient>
</defs>
</svg>
