<svg width="30" height="31" viewBox="0 0 30 31" fill="none" xmlns="http://www.w3.org/2000/svg">
<path d="M15 3C13.3585 3 11.733 3.32332 10.2165 3.95151C8.69989 4.57969 7.3219 5.50043 6.16117 6.66117C3.81696 9.00537 2.5 12.1848 2.5 15.5C2.5 21.025 6.0875 25.7125 11.05 27.375C11.675 27.475 11.875 27.0875 11.875 26.75V24.6375C8.4125 25.3875 7.675 22.9625 7.675 22.9625C7.1 21.5125 6.2875 21.125 6.2875 21.125C5.15 20.35 6.375 20.375 6.375 20.375C7.625 20.4625 8.2875 21.6625 8.2875 21.6625C9.375 23.5625 11.2125 23 11.925 22.7C12.0375 21.8875 12.3625 21.3375 12.7125 21.025C9.9375 20.7125 7.025 19.6375 7.025 14.875C7.025 13.4875 7.5 12.375 8.3125 11.4875C8.1875 11.175 7.75 9.875 8.4375 8.1875C8.4375 8.1875 9.4875 7.85 11.875 9.4625C12.8625 9.1875 13.9375 9.05 15 9.05C16.0625 9.05 17.1375 9.1875 18.125 9.4625C20.5125 7.85 21.5625 8.1875 21.5625 8.1875C22.25 9.875 21.8125 11.175 21.6875 11.4875C22.5 12.375 22.975 13.4875 22.975 14.875C22.975 19.65 20.05 20.7 17.2625 21.0125C17.7125 21.4 18.125 22.1625 18.125 23.325V26.75C18.125 27.0875 18.325 27.4875 18.9625 27.375C23.925 25.7 27.5 21.025 27.5 15.5C27.5 13.8585 27.1767 12.233 26.5485 10.7165C25.9203 9.19989 24.9996 7.8219 23.8388 6.66117C22.6781 5.50043 21.3001 4.57969 19.7835 3.95151C18.267 3.32332 16.6415 3 15 3Z" fill="white"/>
</svg>
