<svg width="50" height="50" viewBox="0 0 50 50" fill="none" xmlns="http://www.w3.org/2000/svg">
<path d="M14.6643 39.6571C14.9572 43.075 17.6107 45.8678 21.0322 46.1357C27.8143 46.6678 34.1679 46.6678 40.95 46.1357C44.3714 45.8678 47.0214 43.075 47.3179 39.6571C47.725 34.925 48.1464 30.025 48.1464 25C48.1464 19.975 47.725 15.0714 47.3179 10.3428C47.0214 6.92141 44.3714 4.12856 40.95 3.86427C34.3213 3.33447 27.6609 3.33447 21.0322 3.86427C17.6107 4.13213 14.9607 6.92141 14.6643 10.3428C14.25 15.075 13.8357 19.975 13.8357 25C13.8357 30.025 14.2536 34.9286 14.6643 39.6571Z" fill="#D7E0FF"/>
<path d="M2.25001 39.9786C2.49643 43.3822 5.10001 46.2107 8.50358 46.4143C11.1964 46.575 13.8143 46.575 16.5071 46.4143C19.9107 46.2107 22.5179 43.3822 22.7643 39.9786C22.975 37.1036 23.1571 34.1465 23.1571 31.1286C23.1571 28.1107 22.975 25.15 22.7643 22.275C22.5143 18.8715 19.9107 16.0465 16.5071 15.8393C13.8428 15.682 11.1715 15.682 8.50715 15.8393C5.1 16.0465 2.49643 18.875 2.24643 22.275C2.0078 25.2205 1.87676 28.1736 1.85358 31.1286C1.85358 34.1465 2.04286 37.1036 2.25001 39.9786Z" fill="white"/>
<path d="M27.7214 46.4892C32.1143 46.6107 36.4357 46.4892 40.9536 46.1392C44.375 45.8678 47.025 43.0785 47.3214 39.6571C47.7286 34.925 48.1464 30.025 48.1464 25C48.1464 19.975 47.7286 15.0714 47.3214 10.3428C47.025 6.92139 44.375 4.12853 40.9536 3.86067C34.3568 3.33599 27.7289 3.33599 21.1321 3.86067C19.6679 3.97496 18.3464 4.55353 17.2857 5.44639C16.243 6.32737 15.4746 7.48867 15.0714 8.79281M30.5786 36.3035H33.4964" stroke="#4147D5" stroke-linecap="round" stroke-linejoin="round"/>
<path d="M10.7607 39.25H14.25M1.85358 31.2071C1.85358 28.2286 2.06072 25.3107 2.29643 22.475C2.58215 19.0536 5.24643 16.2321 8.67143 16.0107C11.2245 15.839 13.7862 15.839 16.3393 16.0107C19.7679 16.2321 22.4286 19.0536 22.7143 22.475C22.95 25.3107 23.1571 28.2286 23.1571 31.2071C23.1571 34.1857 22.95 37.1 22.7143 39.9393C22.4286 43.3607 19.7643 46.1822 16.3393 46.4036C13.6714 46.5786 11.3393 46.5786 8.67143 46.4036C5.24643 46.1822 2.58215 43.3607 2.29643 39.9393C2.02716 37.0361 1.87703 34.1227 1.85358 31.2071Z" stroke="#4147D5" stroke-linecap="round" stroke-linejoin="round"/>
</svg>
