<svg width="50" height="50" viewBox="0 0 50 50" fill="none" xmlns="http://www.w3.org/2000/svg">
<rect width="50" height="50" rx="10" fill="#66E1FF" fill-opacity="0.1"/>
<path d="M43.75 9.37506C43.7506 8.27929 43.4631 7.20262 42.9164 6.25301C42.3696 5.3034 41.5828 4.51422 40.6348 3.96462C39.6869 3.41501 38.6111 3.12429 37.5153 3.12161C36.4195 3.11893 35.3423 3.40438 34.3917 3.94934C33.441 4.4943 32.6504 5.27961 32.099 6.22654C31.5476 7.17346 31.2548 8.24871 31.2501 9.34446C31.2453 10.4402 31.5287 11.518 32.0719 12.4696C32.615 13.4213 33.3988 14.2135 34.3447 14.7667C34.1699 16.8047 33.2246 18.4874 31.5254 19.7754C29.792 21.0938 27.3525 21.8751 25 21.8751C22.6475 21.8751 20.208 21.0938 18.4746 19.7754C16.7754 18.4874 15.8301 16.8047 15.6553 14.7667C16.8425 14.0724 17.7676 13.006 18.2872 11.7326C18.8068 10.4593 18.8919 9.05005 18.5293 7.72342C18.1666 6.39678 17.3766 5.22679 16.2815 4.39478C15.1864 3.56276 13.8474 3.11518 12.4722 3.1214C11.0969 3.12762 9.76203 3.5873 8.67451 4.42919C7.587 5.27107 6.80754 6.44816 6.45693 7.77803C6.10633 9.10789 6.20415 10.5163 6.73525 11.7849C7.26635 13.0535 8.20106 14.1115 9.39453 14.795C9.59765 18.7862 11.4619 22.3018 14.6982 24.7559C16.7285 26.295 19.2383 27.3624 21.875 27.8409V35.2159C20.6835 35.9038 19.7523 36.9657 19.2257 38.2368C18.6992 39.5079 18.6069 40.9172 18.963 42.2462C19.3191 43.5751 20.1037 44.7494 21.1952 45.587C22.2868 46.4246 23.6242 46.8785 25 46.8785C26.3758 46.8785 27.7132 46.4246 28.8048 45.587C29.8963 44.7494 30.6809 43.5751 31.037 42.2462C31.3931 40.9172 31.3008 39.5079 30.7742 38.2368C30.2477 36.9657 29.3165 35.9038 28.125 35.2159V27.8409C30.7617 27.3624 33.2715 26.295 35.3018 24.7559C38.5381 22.3018 40.4023 18.7862 40.6055 14.795C41.5603 14.2483 42.3539 13.4592 42.906 12.5076C43.4582 11.5559 43.7493 10.4753 43.75 9.37506ZM12.5 6.25006C13.1181 6.25006 13.7223 6.43333 14.2362 6.77671C14.7501 7.12009 15.1506 7.60815 15.3871 8.17917C15.6236 8.75019 15.6855 9.37852 15.565 9.98471C15.4444 10.5909 15.1467 11.1477 14.7097 11.5848C14.2727 12.0218 13.7158 12.3194 13.1097 12.44C12.5035 12.5606 11.8751 12.4987 11.3041 12.2622C10.7331 12.0257 10.245 11.6251 9.90165 11.1112C9.55828 10.5973 9.375 9.99312 9.375 9.37506C9.375 8.54626 9.70424 7.7514 10.2903 7.16535C10.8763 6.5793 11.6712 6.25006 12.5 6.25006ZM25 43.7501C24.3819 43.7501 23.7777 43.5668 23.2638 43.2234C22.7499 42.88 22.3494 42.392 22.1129 41.8209C21.8764 41.2499 21.8145 40.6216 21.935 40.0154C22.0556 39.4092 22.3533 38.8524 22.7903 38.4153C23.2273 37.9783 23.7842 37.6807 24.3903 37.5601C24.9965 37.4395 25.6249 37.5014 26.1959 37.7379C26.7669 37.9745 27.255 38.375 27.5983 38.8889C27.9417 39.4028 28.125 40.007 28.125 40.6251C28.125 41.4539 27.7958 42.2487 27.2097 42.8348C26.6237 43.4208 25.8288 43.7501 25 43.7501ZM37.5 12.5001C36.8819 12.5001 36.2777 12.3168 35.7638 11.9734C35.2499 11.63 34.8494 11.142 34.6129 10.5709C34.3764 9.99992 34.3145 9.37159 34.435 8.7654C34.5556 8.15921 34.8533 7.60239 35.2903 7.16535C35.7273 6.72831 36.2842 6.43068 36.8903 6.3101C37.4965 6.18952 38.1249 6.25141 38.6959 6.48793C39.2669 6.72446 39.755 7.125 40.0983 7.6389C40.4417 8.1528 40.625 8.75699 40.625 9.37506C40.625 10.2039 40.2958 10.9987 39.7097 11.5848C39.1237 12.1708 38.3288 12.5001 37.5 12.5001Z" fill="#6B46C1"/>
</svg>
