<svg width="50" height="50" viewBox="0 0 50 50" fill="none" xmlns="http://www.w3.org/2000/svg">
<rect width="50" height="50" rx="10" fill="#66E1FF" fill-opacity="0.1"/>
<path d="M25 8.33337H20.8334C12.9771 8.33337 9.04794 8.33337 6.60835 10.775C4.16877 13.2167 4.16669 17.1438 4.16669 25C4.16669 32.8563 4.16669 36.7855 6.60835 39.225C8.57294 41.1917 11.5 41.573 16.6667 41.648M33.3334 8.35421C38.5 8.42921 41.4271 8.81254 43.3917 10.7771C45.8334 13.2146 45.8334 17.1438 45.8334 25C45.8334 32.8563 45.8334 36.7855 43.3917 39.225C40.95 41.6646 37.0229 41.6667 29.1667 41.6667H25M31.25 35.4167H18.75" stroke="#6B46C1" stroke-width="3" stroke-linecap="round"/>
</svg>
