<svg width="30" height="33" viewBox="0 0 30 33" fill="none" xmlns="http://www.w3.org/2000/svg">
<g clip-path="url(#clip0_1_35)">
<path d="M14.0101 15.7322L0.124207 30.2085C0.280144 30.7584 0.560368 31.2655 0.943458 31.6911C1.32655 32.1167 1.80236 32.4495 2.33453 32.6641C2.86669 32.8787 3.44112 32.9694 4.01389 32.9292C4.58667 32.889 5.14263 32.7191 5.63929 32.4323L21.2635 23.5778L14.0101 15.7322Z" fill="#EA4335"/>
<path d="M28.0512 13.2716L21.2947 9.42072L13.6895 16.0615L21.3257 23.5571L28.0307 19.7475C28.6246 19.438 29.1222 18.9727 29.4693 18.4019C29.8164 17.8311 30 17.1766 30 16.5095C30 15.8423 29.8164 15.1879 29.4693 14.6171C29.1222 14.0463 28.6246 13.5809 28.0307 13.2715L28.0512 13.2716Z" fill="#FBBC04"/>
<path d="M0.124224 2.73877C0.0403409 3.04754 -0.00143966 3.36613 5.73607e-06 3.68597V29.2612C0.000834027 29.5809 0.042576 29.8993 0.124224 30.2085L14.4861 16.103L0.124224 2.73877Z" fill="#4285F4"/>
<path d="M14.1136 16.4737L21.2946 9.42087L5.69108 0.525092C5.104 0.182989 4.4363 0.00181041 3.75596 7.15159e-06C2.06764 -0.00325787 0.583347 1.11175 0.124207 2.72851L14.1136 16.4737Z" fill="#34A853"/>
</g>
<defs>
<clipPath id="clip0_1_35">
<rect width="30" height="33" fill="white"/>
</clipPath>
</defs>
</svg>
