<svg width="36" height="35" viewBox="0 0 36 35" fill="none" xmlns="http://www.w3.org/2000/svg">
<path d="M24.3663 9.35565C21.6101 9.35565 20.4452 10.6709 18.5257 10.6709C16.5576 10.6709 15.0564 9.36522 12.668 9.36522C10.3301 9.36522 7.83701 10.7926 6.2538 13.2241C4.03076 16.653 4.4081 23.1109 8.00859 28.6125C9.29648 30.5819 11.0164 32.7906 13.2723 32.8145H13.3133C15.2738 32.8145 15.8562 31.5307 18.5544 31.5157H18.5954C21.2532 31.5157 21.7864 32.807 23.7388 32.807H23.7798C26.0356 32.7831 27.8478 30.3358 29.1357 28.3739C30.0627 26.963 30.4072 26.2548 31.1182 24.6586C25.9099 22.6816 25.0731 15.2981 30.224 12.4674C28.6518 10.4986 26.4424 9.35839 24.3595 9.35839L24.3663 9.35565Z" fill="#F7FAFC"/>
<path d="M23.7593 2.1875C22.1187 2.29893 20.2046 3.34346 19.0835 4.70723C18.0663 5.94316 17.2296 7.77656 17.5577 9.55459H17.689C19.4362 9.55459 21.2245 8.50254 22.269 7.15449C23.2753 5.87139 24.0382 4.05303 23.7593 2.1875Z" fill="#F7FAFC"/>
</svg>
