<svg width="1440" height="1246" viewBox="0 0 1440 1246" fill="none" xmlns="http://www.w3.org/2000/svg">
<g filter="url(#filter0_f_1_80)">
<path d="M407.861 687.518C363.612 628.544 265.796 655.928 193.004 667.647C129.402 677.887 76.7514 713.728 23.1459 749.455C15.7826 754.363 7.99684 759.08 0 763.723V1044L488.427 1045.5C460.038 1002.17 395.934 974.262 383.39 921.384C364.843 843.207 456.083 751.786 407.861 687.518Z" fill="#D480FF"/>
</g>
<g filter="url(#filter1_f_1_80)">
<circle cx="1356" r="150" fill="#4CFF0B"/>
</g>
<g filter="url(#filter2_f_1_80)">
<circle cx="87" cy="50" r="100" fill="#F65FEE"/>
</g>
<g filter="url(#filter3_f_1_80)">
<circle cx="1422" cy="946" r="100" fill="#5FE4F6"/>
</g>
<defs>
<filter id="filter0_f_1_80" x="-200" y="451" width="888.427" height="794.5" filterUnits="userSpaceOnUse" color-interpolation-filters="sRGB">
<feFlood flood-opacity="0" result="BackgroundImageFix"/>
<feBlend mode="normal" in="SourceGraphic" in2="BackgroundImageFix" result="shape"/>
<feGaussianBlur stdDeviation="100" result="effect1_foregroundBlur_1_80"/>
</filter>
<filter id="filter1_f_1_80" x="1006" y="-350" width="700" height="700" filterUnits="userSpaceOnUse" color-interpolation-filters="sRGB">
<feFlood flood-opacity="0" result="BackgroundImageFix"/>
<feBlend mode="normal" in="SourceGraphic" in2="BackgroundImageFix" result="shape"/>
<feGaussianBlur stdDeviation="100" result="effect1_foregroundBlur_1_80"/>
</filter>
<filter id="filter2_f_1_80" x="-213" y="-250" width="600" height="600" filterUnits="userSpaceOnUse" color-interpolation-filters="sRGB">
<feFlood flood-opacity="0" result="BackgroundImageFix"/>
<feBlend mode="normal" in="SourceGraphic" in2="BackgroundImageFix" result="shape"/>
<feGaussianBlur stdDeviation="100" result="effect1_foregroundBlur_1_80"/>
</filter>
<filter id="filter3_f_1_80" x="1122" y="646" width="600" height="600" filterUnits="userSpaceOnUse" color-interpolation-filters="sRGB">
<feFlood flood-opacity="0" result="BackgroundImageFix"/>
<feBlend mode="normal" in="SourceGraphic" in2="BackgroundImageFix" result="shape"/>
<feGaussianBlur stdDeviation="100" result="effect1_foregroundBlur_1_80"/>
</filter>
</defs>
</svg>
